<svg xmlns="http://www.w3.org/2000/svg" xmlns:xlink="http://www.w3.org/1999/xlink" viewBox="0 0 225.28 139.9"><defs><style>.a{fill:#1e3764;}.b{fill:url(#a);}.c{fill:url(#b);}</style><linearGradient id="a" x1="422.14" y1="513.97" x2="504.54" y2="544.57" gradientTransform="matrix(1, 0, 0, -1, 0, 1026)" gradientUnits="userSpaceOnUse"><stop offset="0" stop-color="#005ab9"/><stop offset="1" stop-color="#1e3764"/></linearGradient><linearGradient id="b" x1="518.82" y1="534.76" x2="606.31" y2="564.61" gradientTransform="matrix(1, 0, 0, -1, 0, 1026)" gradientUnits="userSpaceOnUse"><stop offset="0" stop-color="#fba900"/><stop offset="1" stop-color="#ffd800"/></linearGradient></defs><title>Bancontact logo</title><path class="a" d="M399.36,581.39V548.85h10c7.3,0,12,2.74,12,8.41a7.57,7.57,0,0,1-3.58,6.74,8.06,8.06,0,0,1,4.79,7.76c0,6.55-4.79,9.62-12.23,9.62Zm6.46-19h4.79c2.93,0,4.18-1.44,4.18-4.09,0-2.84-2.28-3.77-5.35-3.77h-3.63Zm0,13.34h4c3.91,0,6.18-1,6.18-4s-2-4.28-5.63-4.28h-4.56Zm29.31,6.23c-6.37,0-9.58-3.11-9.58-7.3,0-4.6,3.77-7.3,9.34-7.35a29.11,29.11,0,0,1,4.14.37v-1.12c0-2.84-1.63-4.18-4.74-4.18a16.31,16.31,0,0,0-6.14,1.12l-1.16-5a23,23,0,0,1,8-1.39c6.83,0,10.23,3.63,10.23,9.9V579.9a23.28,23.28,0,0,1-10.13,2Zm3.9-5.25v-5a15.61,15.61,0,0,0-3.3-.37c-2.14,0-3.81.84-3.81,3,0,2,1.39,3,3.86,3a7.28,7.28,0,0,0,3.25-.65Zm10.75,4.7V559.12a28.39,28.39,0,0,1,10.51-2c6.79,0,10.69,3.35,10.69,9.53v14.78h-6.42V567.07c0-3.21-1.49-4.7-4.32-4.7a9.75,9.75,0,0,0-4.09.84v18.18Zm43.62-22.92-1.21,5.07a14.16,14.16,0,0,0-5.25-1.16c-3.77,0-5.81,2.65-5.81,7,0,4.79,2.14,7.25,6.14,7.25a13.16,13.16,0,0,0,5.16-1.21l1,5.16a15.65,15.65,0,0,1-6.69,1.35c-7.72,0-12.18-4.79-12.18-12.37s4.42-12.51,11.81-12.51a17.92,17.92,0,0,1,7,1.39Zm13.86,23.48c-7.16,0-11.62-5-11.62-12.46s4.46-12.41,11.62-12.41,11.58,5,11.58,12.41S514.47,581.95,507.26,581.95Zm0-5.3c3.3,0,5-2.74,5-7.16s-1.72-7.11-5-7.11-5.07,2.74-5.07,7.11S504,576.65,507.26,576.65Zm15.29,4.74V559.12a28.39,28.39,0,0,1,10.51-2c6.79,0,10.69,3.35,10.69,9.53v14.78h-6.42V567.07c0-3.21-1.49-4.7-4.32-4.7a9.75,9.75,0,0,0-4.09.84v18.18Zm35.67.56c-5.53,0-8.37-3-8.37-9.16v-10h-3.16v-5.11h3.16v-5.16l6.42-.33v5.49h5.16v5.11h-5.16v9.95c0,2.7,1.12,4,3.21,4a11.27,11.27,0,0,0,2.46-.28l.33,5.16A17.73,17.73,0,0,1,558.22,581.95Zm16.19,0c-6.37,0-9.58-3.11-9.58-7.3,0-4.6,3.77-7.3,9.34-7.35a29.11,29.11,0,0,1,4.14.37v-1.12c0-2.84-1.63-4.18-4.74-4.18a16.31,16.31,0,0,0-6.14,1.12l-1.16-5a23,23,0,0,1,8-1.39c6.83,0,10.23,3.63,10.23,9.9V579.9A23.28,23.28,0,0,1,574.41,581.95Zm3.9-5.25v-5a15.61,15.61,0,0,0-3.3-.37c-2.14,0-3.81.84-3.81,3,0,2,1.39,3,3.86,3A7.28,7.28,0,0,0,578.31,576.69Zm28.18-18.22-1.21,5.07a14.16,14.16,0,0,0-5.25-1.16c-3.77,0-5.81,2.65-5.81,7,0,4.79,2.14,7.25,6.14,7.25a13.16,13.16,0,0,0,5.16-1.21l1,5.16a15.65,15.65,0,0,1-6.69,1.35c-7.72,0-12.18-4.79-12.18-12.37s4.42-12.51,11.81-12.51A17.92,17.92,0,0,1,606.49,558.47Zm14.1,23.48c-5.53,0-8.37-3-8.37-9.16v-10h-3.16v-5.11h3.16v-5.16l6.42-.33v5.49h5.16v5.11h-5.16v9.95c0,2.7,1.12,4,3.21,4a11.27,11.27,0,0,0,2.46-.28l.33,5.16A17.73,17.73,0,0,1,620.6,581.95Z" transform="translate(-399.36 -442.05)"/><path class="b" d="M444.11,532.58c33.95,0,50.92-22.63,67.89-45.26H399.36v45.26Z" transform="translate(-399.36 -442.05)"/><path class="c" d="M579.89,442.05c-33.95,0-50.92,22.63-67.89,45.26H624.64V442.05Z" transform="translate(-399.36 -442.05)"/></svg>